<!--<svg xmlns="http://www.w3.org/2000/svg" viewBox="0 0 841.9 595.3"><g fill="#61DAFB"><path d="M666.3 296.5c0-32.5-40.7-63.3-103.1-82.4 14.4-63.6 8-114.2-20.2-130.4-6.5-3.8-14.1-5.6-22.4-5.6v22.3c4.6 0 8.3.9 11.4 2.6 13.6 7.8 19.5 37.5 14.9 75.7-1.1 9.4-2.9 19.3-5.1 29.4-19.6-4.8-41-8.5-63.5-10.9-13.5-18.5-27.5-35.3-41.6-50 32.6-30.3 63.2-46.9 84-46.9V78c-27.5 0-63.5 19.6-99.9 53.6-36.4-33.8-72.4-53.2-99.9-53.2v22.3c20.7 0 51.4 16.5 84 46.6-14 14.7-28 31.4-41.3 49.9-22.6 2.4-44 6.1-63.6 11-2.3-10-4-19.7-5.2-29-4.7-38.2 1.1-67.9 14.6-75.8 3-1.8 6.9-2.6 11.5-2.6V78.5c-8.4 0-16 1.8-22.6 5.6-28.1 16.2-34.4 66.7-19.9 130.1-62.2 19.2-102.7 49.9-102.7 82.3 0 32.5 40.7 63.3 103.1 82.4-14.4 63.6-8 114.2 20.2 130.4 6.5 3.8 14.1 5.6 22.5 5.6 27.5 0 63.5-19.6 99.9-53.6 36.4 33.8 72.4 53.2 99.9 53.2 8.4 0 16-1.8 22.6-5.6 28.1-16.2 34.4-66.7 19.9-130.1 62-19.1 102.5-49.9 102.5-82.3zm-130.2-66.7c-3.7 12.9-8.3 26.2-13.5 39.5-4.1-8-8.4-16-13.1-24-4.6-8-9.5-15.8-14.4-23.4 14.2 2.1 27.9 4.7 41 7.9zm-45.8 106.5c-7.8 13.5-15.8 26.3-24.1 38.2-14.9 1.3-30 2-45.2 2-15.1 0-30.2-.7-45-1.9-8.3-11.9-16.4-24.6-24.2-38-7.6-13.1-14.5-26.4-20.8-39.8 6.2-13.4 13.2-26.8 20.7-39.9 7.8-13.5 15.8-26.3 24.1-38.2 14.9-1.3 30-2 45.2-2 15.1 0 30.2.7 45 1.9 8.3 11.9 16.4 24.6 24.2 38 7.6 13.1 14.5 26.4 20.8 39.8-6.3 13.4-13.2 26.8-20.7 39.9zm32.3-13c5.4 13.4 10 26.8 13.8 39.8-13.1 3.2-26.9 5.9-41.2 8 4.9-7.7 9.8-15.6 14.4-23.7 4.6-8 8.9-16.1 13-24.1zM421.2 430c-9.3-9.6-18.6-20.3-27.8-32 9 .4 18.2.7 27.5.7 9.4 0 18.7-.2 27.8-.7-9 11.7-18.3 22.4-27.5 32zm-74.4-58.9c-14.2-2.1-27.9-4.7-41-7.9 3.7-12.9 8.3-26.2 13.5-39.5 4.1 8 8.4 16 13.1 24 4.7 8 9.5 15.8 14.4 23.4zM420.7 163c9.3 9.6 18.6 20.3 27.8 32-9-.4-18.2-.7-27.5-.7-9.4 0-18.7.2-27.8.7 9-11.7 18.3-22.4 27.5-32zm-74 58.9c-4.9 7.7-9.8 15.6-14.4 23.7-4.6 8-8.9 16-13 24-5.4-13.4-10-26.8-13.8-39.8 13.1-3.1 26.9-5.8 41.2-7.9zm-90.5 125.2c-35.4-15.1-58.3-34.9-58.3-50.6 0-15.7 22.9-35.6 58.3-50.6 8.6-3.7 18-7 27.7-10.1 5.7 19.6 13.2 40 22.5 60.9-9.2 20.8-16.6 41.1-22.2 60.6-9.9-3.1-19.3-6.5-28-10.2zM310 490c-13.6-7.8-19.5-37.5-14.9-75.7 1.1-9.4 2.9-19.3 5.1-29.4 19.6 4.8 41 8.5 63.5 10.9 13.5 18.5 27.5 35.3 41.6 50-32.6 30.3-63.2 46.9-84 46.9-4.5-.1-8.3-1-11.3-2.7zm237.2-76.2c4.7 38.2-1.1 67.9-14.6 75.8-3 1.8-6.9 2.6-11.5 2.6-20.7 0-51.4-16.5-84-46.6 14-14.7 28-31.4 41.3-49.9 22.6-2.4 44-6.1 63.6-11 2.3 10.1 4.1 19.8 5.2 29.1zm38.5-66.7c-8.6 3.7-18 7-27.7 10.1-5.7-19.6-13.2-40-22.5-60.9 9.2-20.8 16.6-41.1 22.2-60.6 9.9 3.1 19.3 6.5 28.1 10.2 35.4 15.1 58.3 34.9 58.3 50.6-.1 15.7-23 35.6-58.4 50.6zM320.8 78.4z"/><circle cx="420.9" cy="296.5" r="45.7"/><path d="M520.5 78.1z"/></g></svg>-->
<svg id="Layer_1" data-name="Layer 1" xmlns="http://www.w3.org/2000/svg"
     viewBox="0 0 122.88 106.91">
    <title>speech-bubble</title>
    <path
            d="M56,92.15a38.3,38.3,0,0,0,11.23,5.78c8.41,2.66,17.75,2.25,27.12-1.74a2.72,2.72,0,0,1,2-.08l12,4L107,90.36a2.78,2.78,0,0,1,1-2.53,28.41,28.41,0,0,0,6.31-6.8,17.53,17.53,0,0,0,2.73-12.47,27,27,0,0,0-6-12.5c-.6-.76-1.25-1.5-1.92-2.23h0a42.62,42.62,0,0,0,1.27-6.59,50,50,0,0,1,5,5.34,32.71,32.71,0,0,1,7.14,15.14A23,23,0,0,1,119.05,84a32.7,32.7,0,0,1-6.29,7.12l1.61,12.4a2.79,2.79,0,0,1-3.6,3.21l-15.24-5a43.85,43.85,0,0,1-30,1.53A45,45,0,0,1,47.47,92.16c.65,0,1.33.06,2.06.09,2.18.06,4.34,0,6.46-.1ZM72.11,35.22a6.39,6.39,0,1,1-6.38,6.39,6.39,6.39,0,0,1,6.38-6.39Zm-42.18,0a6.39,6.39,0,1,1-6.38,6.39,6.39,6.39,0,0,1,6.38-6.39Zm21.09,0a6.39,6.39,0,1,1-6.38,6.39A6.38,6.38,0,0,1,51,35.22ZM52.3,0h.05C66.29.46,78.79,5.42,87.74,13.09,96.89,20.93,102.37,31.6,102,43.26v0c-.36,11.66-6.48,22-16.1,29.3-9.41,7.14-22.22,11.36-36.16,11A62.05,62.05,0,0,1,38.5,82.2a58.64,58.64,0,0,1-9.43-2.87l-22.83,9,7.65-18.19a42.35,42.35,0,0,1-10-12.73A35.22,35.22,0,0,1,0,40.3C.37,28.63,6.49,18.28,16.11,11,25.53,3.83,38.33-.38,52.28,0Zm-.17,6.35h-.05C39.62,6,28.25,9.74,19.94,16,11.83,22.2,6.66,30.83,6.37,40.47A29.15,29.15,0,0,0,9.56,54.53,36.92,36.92,0,0,0,19.7,66.69l1.89,1.51-3.65,8.67,11.21-4.41,1.2.51a52.07,52.07,0,0,0,9.47,3A57,57,0,0,0,49.94,77.2c12.47.36,23.85-3.36,32.16-9.66,8.11-6.16,13.28-14.79,13.57-24.43v0C96,33.44,91.32,24.54,83.6,17.92c-7.91-6.78-19-11.16-31.45-11.54Z"
            fill="#00a583"
    />
</svg>