
<svg width="100" height="100" viewBox="0 0 1024 1024" xmlns="http://www.w3.org/2000/svg">
  <g id="SVGRepo_bgCarrier" stroke-width="0"></g>
  <g id="SVGRepo_tracerCarrier" stroke-linecap="round" stroke-linejoin="round"></g>
  <g id="SVGRepo_iconCarrier">
    <path d="M960 384c-36.352 0-70.336 9.216-100.352 25.344C789.888 330.56 698.88 256 592 256c-74.24 0-140.16 33.024-184.064 84.48C366.016 321.472 320 288 266.56 288c-79.52 0-145.792 51.072-173.568 122.624A256 256 0 1 0 256 832h416a256 256 0 1 0 288-448zM96 832a160 160 0 1 1 80-301.056c6.656 28.928 20.16 55.36 39.04 77.12A160 160 0 0 1 256 832H96zm608 0H322.176A255.36 255.36 0 0 0 368 832h336a255.36 255.36 0 0 0 45.824-5.056C743.296 827.52 722.048 832 700.48 832H704zm128 0c-70.08 0-128.128-40.64-157.44-100.352A160 160 0 1 1 832 832z" fill="#00C26F"></path>
    <path d="M864 768a32 32 0 0 1-32-32v-96a32 32 0 1 1 64 0v96a32 32 0 0 1-32 32z" fill="#00C26F"></path>
  </g>
</svg>
